<svg width="24" height="25" viewBox="0 0 24 25" fill="none" xmlns="http://www.w3.org/2000/svg">
<path d="M12 2.06348C14.717 2.06348 15.056 2.07379 16.122 2.12538C17.187 2.17696 17.912 2.34926 18.55 2.60512C19.21 2.86717 19.766 3.22207 20.322 3.79466C20.8305 4.3104 21.224 4.93425 21.475 5.62282C21.722 6.28 21.89 7.02901 21.94 8.12777C21.987 9.22755 22 9.5773 22 12.3804C22 15.1835 21.99 15.5333 21.94 16.633C21.89 17.7318 21.722 18.4798 21.475 19.138C21.2247 19.8269 20.8311 20.4509 20.322 20.9662C19.822 21.4906 19.2173 21.8965 18.55 22.1557C17.913 22.4105 17.187 22.5838 16.122 22.6354C15.056 22.6839 14.717 22.6973 12 22.6973C9.283 22.6973 8.944 22.687 7.878 22.6354C6.813 22.5838 6.088 22.4105 5.45 22.1557C4.78233 21.8972 4.17753 21.4912 3.678 20.9662C3.16941 20.4505 2.77593 19.8266 2.525 19.138C2.277 18.4808 2.11 17.7318 2.06 16.633C2.013 15.5333 2 15.1835 2 12.3804C2 9.5773 2.01 9.22755 2.06 8.12777C2.11 7.02798 2.277 6.28104 2.525 5.62282C2.77524 4.93383 3.1688 4.3098 3.678 3.79466C4.17767 3.26976 4.78243 2.86379 5.45 2.60512C6.088 2.34926 6.812 2.17696 7.878 2.12538C8.944 2.07689 9.283 2.06348 12 2.06348ZM12 7.22194C10.6739 7.22194 9.40215 7.76542 8.46447 8.73282C7.52678 9.70022 7 11.0123 7 12.3804C7 13.7485 7.52678 15.0606 8.46447 16.028C9.40215 16.9954 10.6739 17.5389 12 17.5389C13.3261 17.5389 14.5979 16.9954 15.5355 16.028C16.4732 15.0606 17 13.7485 17 12.3804C17 11.0123 16.4732 9.70022 15.5355 8.73282C14.5979 7.76542 13.3261 7.22194 12 7.22194ZM18.5 6.96402C18.5 6.62199 18.3683 6.29397 18.1339 6.05212C17.8995 5.81027 17.5815 5.6744 17.25 5.6744C16.9185 5.6744 16.6005 5.81027 16.3661 6.05212C16.1317 6.29397 16 6.62199 16 6.96402C16 7.30605 16.1317 7.63406 16.3661 7.87591C16.6005 8.11776 16.9185 8.25363 17.25 8.25363C17.5815 8.25363 17.8995 8.11776 18.1339 7.87591C18.3683 7.63406 18.5 7.30605 18.5 6.96402ZM12 9.28533C12.7956 9.28533 13.5587 9.61141 14.1213 10.1919C14.6839 10.7723 15 11.5595 15 12.3804C15 13.2013 14.6839 13.9885 14.1213 14.569C13.5587 15.1494 12.7956 15.4755 12 15.4755C11.2044 15.4755 10.4413 15.1494 9.87868 14.569C9.31607 13.9885 9 13.2013 9 12.3804C9 11.5595 9.31607 10.7723 9.87868 10.1919C10.4413 9.61141 11.2044 9.28533 12 9.28533Z" fill="white"/>
</svg>
