<svg width="24" height="25" viewBox="0 0 24 25" fill="none" xmlns="http://www.w3.org/2000/svg">
<path d="M22.162 5.83522C21.3986 6.18362 20.589 6.41243 19.76 6.51408C20.6338 5.97495 21.2877 5.12647 21.6 4.12674C20.78 4.63021 19.881 4.98305 18.944 5.17391C18.3146 4.47915 17.4804 4.01837 16.571 3.86323C15.6616 3.70809 14.7279 3.86726 13.9153 4.31601C13.1026 4.76476 12.4564 5.47793 12.0771 6.34467C11.6978 7.2114 11.6068 8.18313 11.818 9.10879C10.1551 9.0228 8.52834 8.57697 7.04329 7.80025C5.55825 7.02353 4.24813 5.93328 3.19801 4.60029C2.8263 5.25897 2.63096 6.00775 2.63201 6.76994C2.63201 8.26589 3.37001 9.58749 4.49201 10.3613C3.82802 10.3397 3.17864 10.1547 2.59801 9.82169V9.87533C2.59821 10.8716 2.93238 11.8372 3.54385 12.6083C4.15533 13.3795 5.00649 13.9087 5.95301 14.1063C5.33662 14.2786 4.69031 14.304 4.06301 14.1806C4.32987 15.0382 4.85001 15.7882 5.5506 16.3256C6.25118 16.863 7.09714 17.1609 7.97001 17.1777C7.10249 17.8806 6.10918 18.4002 5.04689 18.7068C3.98459 19.0134 2.87413 19.101 1.77901 18.9645C3.6907 20.2329 5.9161 20.9063 8.18901 20.9041C15.882 20.9041 20.089 14.3292 20.089 8.62699C20.089 8.44128 20.084 8.25351 20.076 8.06987C20.8949 7.45928 21.6016 6.7029 22.163 5.83626L22.162 5.83522Z" fill="white"/>
</svg>
