<svg width="24" height="25" viewBox="0 0 24 25" fill="none" xmlns="http://www.w3.org/2000/svg">
<path d="M21.543 6.70412C22 8.5426 22 12.3805 22 12.3805C22 12.3805 22 16.2184 21.543 18.0569C21.289 19.0731 20.546 19.8727 19.605 20.143C17.896 20.634 12 20.634 12 20.634C12 20.634 6.107 20.634 4.395 20.143C3.45 19.8685 2.708 19.07 2.457 18.0569C2 16.2184 2 12.3805 2 12.3805C2 12.3805 2 8.5426 2.457 6.70412C2.711 5.6879 3.454 4.88834 4.395 4.61804C6.107 4.12695 12 4.12695 12 4.12695C12 4.12695 17.896 4.12695 19.605 4.61804C20.55 4.89247 21.292 5.691 21.543 6.70412ZM10 15.9914L16 12.3805L10 8.76957V15.9914Z" fill="white"/>
</svg>
